# 3ds Max Wavefront OBJ Exporter v0.97b - (c)2007 guruware
# File Created: 30.01.2018 16:18:20

#
# object Box001
#

v  -18.9030 -19.6046 -1.4830
v  -20.9670 -18.7070 -1.4830
v  -18.9200 -13.9998 -1.4830
v  -16.8560 -14.8974 -1.4830
v  -18.9030 -19.6046 1.3971
v  -16.8560 -14.8974 1.3971
v  -18.9200 -13.9998 1.3971
v  -20.9670 -18.7070 1.3971
# 8 vertices

vn 0.0000 0.0000 -1.0000
vn 0.0000 0.0000 1.0000
vn 0.9170 -0.3988 0.0000
vn 0.3988 0.9170 0.0000
vn -0.9170 0.3988 0.0000
vn -0.3988 -0.9170 0.0000
# 6 vertex normals

g Box001
s 2
f 1//1 2//1 3//1 
f 3//1 4//1 1//1 
s 4
f 5//2 6//2 7//2 
f 7//2 8//2 5//2 
s 8
f 1//3 4//3 6//3 
f 6//3 5//3 1//3 
s 16
f 4//4 3//4 7//4 
f 7//4 6//4 4//4 
s 32
f 3//5 2//5 8//5 
f 8//5 7//5 3//5 
s 64
f 2//6 1//6 5//6 
f 5//6 8//6 2//6 
# 12 faces

#
# object Box00gtrwhgt
#

v  -13.9661 -8.8197 -1.5018
v  -12.7083 -5.8510 -1.5018
v  -7.6503 -8.1118 -1.5018
v  -8.9081 -11.0805 -1.5018
v  -13.9661 -8.8197 9.4150
v  -8.9081 -11.0805 9.4150
v  -7.6503 -8.1118 9.4150
v  -12.7083 -5.8510 9.4150
# 8 vertices

vn 0.0000 0.0000 -1.0000
vn 0.0000 0.0000 1.0000
vn -0.4081 -0.9130 0.0000
vn 0.9208 -0.3901 0.0000
vn 0.4081 0.9130 0.0000
vn -0.9208 0.3901 0.0000
# 6 vertex normals

g Box00gtrwhgt
s 1
f 9//7 10//7 11//7 
f 11//7 12//7 9//7 
f 13//8 14//8 15//8 
f 15//8 16//8 13//8 
f 9//9 12//9 14//9 
f 14//9 13//9 9//9 
f 12//10 11//10 15//10 
f 15//10 14//10 12//10 
f 11//11 10//11 16//11 
f 16//11 15//11 11//11 
f 10//12 9//12 13//12 
f 13//12 16//12 10//12 
# 12 faces

#
# object Cylinder001
#

v  -6.5690 -9.6366 -1.4511
v  -6.6662 -9.0852 -1.4511
v  -6.6662 -9.0852 0.4278
v  -6.5690 -9.6366 0.4278
v  -6.9462 -8.6004 -1.4511
v  -6.9462 -8.6004 0.4278
v  -7.3751 -8.2405 -1.4511
v  -7.3751 -8.2405 0.4278
v  -7.9012 -8.0490 -1.4511
v  -7.9012 -8.0490 0.4278
v  -8.4610 -8.0490 -1.4511
v  -8.4610 -8.0490 0.4278
v  -8.9872 -8.2405 -1.4511
v  -8.9872 -8.2405 0.4278
v  -9.4160 -8.6004 -1.4511
v  -9.4160 -8.6004 0.4278
v  -9.6960 -9.0852 -1.4511
v  -9.6960 -9.0852 0.4278
v  -9.7932 -9.6366 -1.4511
v  -9.7932 -9.6366 0.4278
v  -9.6960 -10.1880 -1.4511
v  -9.6960 -10.1880 0.4278
v  -9.4160 -10.6728 -1.4511
v  -9.4160 -10.6728 0.4278
v  -8.9872 -11.0327 -1.4511
v  -8.9872 -11.0327 0.4278
v  -8.4610 -11.2242 -1.4511
v  -8.4610 -11.2242 0.4278
v  -7.9012 -11.2242 -1.4511
v  -7.9012 -11.2242 0.4278
v  -7.3751 -11.0327 -1.4511
v  -7.3751 -11.0327 0.4278
v  -6.9462 -10.6728 -1.4511
v  -6.9462 -10.6728 0.4278
v  -6.6662 -10.1880 -1.4511
v  -6.6662 -10.1880 0.4278
v  -6.6662 -9.0852 2.3067
v  -6.5690 -9.6366 2.3067
v  -6.9462 -8.6004 2.3067
v  -7.3751 -8.2405 2.3067
v  -7.9012 -8.0490 2.3067
v  -8.4610 -8.0490 2.3067
v  -8.9872 -8.2405 2.3067
v  -9.4160 -8.6004 2.3067
v  -9.6960 -9.0852 2.3067
v  -9.7932 -9.6366 2.3067
v  -9.6960 -10.1880 2.3067
v  -9.4160 -10.6728 2.3067
v  -8.9872 -11.0327 2.3067
v  -8.4610 -11.2242 2.3067
v  -7.9012 -11.2242 2.3067
v  -7.3751 -11.0327 2.3067
v  -6.9462 -10.6728 2.3067
v  -6.6662 -10.1880 2.3067
v  -6.6662 -9.0852 4.1857
v  -6.5690 -9.6366 4.1857
v  -6.9462 -8.6004 4.1857
v  -7.3751 -8.2405 4.1857
v  -7.9012 -8.0490 4.1857
v  -8.4610 -8.0490 4.1857
v  -8.9872 -8.2405 4.1857
v  -9.4160 -8.6004 4.1857
v  -9.6960 -9.0852 4.1857
v  -9.7932 -9.6366 4.1857
v  -9.6960 -10.1880 4.1857
v  -9.4160 -10.6728 4.1857
v  -8.9872 -11.0327 4.1857
v  -8.4610 -11.2242 4.1857
v  -7.9012 -11.2242 4.1857
v  -7.3751 -11.0327 4.1857
v  -6.9462 -10.6728 4.1857
v  -6.6662 -10.1880 4.1857
v  -6.6662 -9.0852 6.0646
v  -6.5690 -9.6366 6.0646
v  -6.9462 -8.6004 6.0646
v  -7.3751 -8.2405 6.0646
v  -7.9012 -8.0490 6.0646
v  -8.4610 -8.0490 6.0646
v  -8.9872 -8.2405 6.0646
v  -9.4160 -8.6004 6.0646
v  -9.6960 -9.0852 6.0646
v  -9.7932 -9.6366 6.0646
v  -9.6960 -10.1880 6.0646
v  -9.4160 -10.6728 6.0646
v  -8.9872 -11.0327 6.0646
v  -8.4610 -11.2242 6.0646
v  -7.9012 -11.2242 6.0646
v  -7.3751 -11.0327 6.0646
v  -6.9462 -10.6728 6.0646
v  -6.6662 -10.1880 6.0646
v  -6.6662 -9.0852 9.4141
v  -6.5690 -9.6366 9.4141
v  -6.9462 -8.6004 9.4141
v  -7.3751 -8.2405 9.4141
v  -7.9012 -8.0490 9.4141
v  -8.4610 -8.0490 9.4141
v  -8.9872 -8.2405 9.4141
v  -9.4160 -8.6004 9.4141
v  -9.6960 -9.0852 9.4141
v  -9.7932 -9.6366 9.4141
v  -9.6960 -10.1880 9.4141
v  -9.4160 -10.6728 9.4141
v  -8.9872 -11.0327 9.4141
v  -8.4610 -11.2242 9.4141
v  -7.9012 -11.2242 9.4141
v  -7.3751 -11.0327 9.4141
v  -6.9462 -10.6728 9.4141
v  -6.6662 -10.1880 9.4141
# 108 vertices

vn 1.0000 0.0000 0.0000
vn 0.9397 0.3420 0.0000
vn 0.7660 0.6428 0.0000
vn 0.5000 0.8660 0.0000
vn 0.1736 0.9848 0.0000
vn -0.1736 0.9848 0.0000
vn -0.5000 0.8660 0.0000
vn -0.7660 0.6428 0.0000
vn -0.9397 0.3420 0.0000
vn -1.0000 0.0000 0.0000
vn -0.9397 -0.3420 0.0000
vn -0.7660 -0.6428 0.0000
vn -0.5000 -0.8660 0.0000
vn -0.1736 -0.9848 0.0000
vn 0.1736 -0.9848 0.0000
vn 0.5000 -0.8660 0.0000
vn 0.7660 -0.6428 0.0000
vn 0.9397 -0.3420 0.0000
vn 0.0000 0.0000 -1.0000
vn 0.0000 0.0000 1.0000
# 20 vertex normals

g Cylinder001
s 1
f 17//13 18//14 19//14 
f 19//14 20//13 17//13 
f 18//14 21//15 22//15 
f 22//15 19//14 18//14 
f 21//15 23//16 24//16 
f 24//16 22//15 21//15 
f 23//16 25//17 26//17 
f 26//17 24//16 23//16 
f 25//17 27//18 28//18 
f 28//18 26//17 25//17 
f 27//18 29//19 30//19 
f 30//19 28//18 27//18 
f 29//19 31//20 32//20 
f 32//20 30//19 29//19 
f 31//20 33//21 34//21 
f 34//21 32//20 31//20 
f 33//21 35//22 36//22 
f 36//22 34//21 33//21 
f 35//22 37//23 38//23 
f 38//23 36//22 35//22 
f 37//23 39//24 40//24 
f 40//24 38//23 37//23 
f 39//24 41//25 42//25 
f 42//25 40//24 39//24 
f 41//25 43//26 44//26 
f 44//26 42//25 41//25 
f 43//26 45//27 46//27 
f 46//27 44//26 43//26 
f 45//27 47//28 48//28 
f 48//28 46//27 45//27 
f 47//28 49//29 50//29 
f 50//29 48//28 47//28 
f 49//29 51//30 52//30 
f 52//30 50//29 49//29 
f 51//30 17//13 20//13 
f 20//13 52//30 51//30 
f 20//13 19//14 53//14 
f 53//14 54//13 20//13 
f 19//14 22//15 55//15 
f 55//15 53//14 19//14 
f 22//15 24//16 56//16 
f 56//16 55//15 22//15 
f 24//16 26//17 57//17 
f 57//17 56//16 24//16 
f 26//17 28//18 58//18 
f 58//18 57//17 26//17 
f 28//18 30//19 59//19 
f 59//19 58//18 28//18 
f 30//19 32//20 60//20 
f 60//20 59//19 30//19 
f 32//20 34//21 61//21 
f 61//21 60//20 32//20 
f 34//21 36//22 62//22 
f 62//22 61//21 34//21 
f 36//22 38//23 63//23 
f 63//23 62//22 36//22 
f 38//23 40//24 64//24 
f 64//24 63//23 38//23 
f 40//24 42//25 65//25 
f 65//25 64//24 40//24 
f 42//25 44//26 66//26 
f 66//26 65//25 42//25 
f 44//26 46//27 67//27 
f 67//27 66//26 44//26 
f 46//27 48//28 68//28 
f 68//28 67//27 46//27 
f 48//28 50//29 69//29 
f 69//29 68//28 48//28 
f 50//29 52//30 70//30 
f 70//30 69//29 50//29 
f 52//30 20//13 54//13 
f 54//13 70//30 52//30 
f 54//13 53//14 71//14 
f 71//14 72//13 54//13 
f 53//14 55//15 73//15 
f 73//15 71//14 53//14 
f 55//15 56//16 74//16 
f 74//16 73//15 55//15 
f 56//16 57//17 75//17 
f 75//17 74//16 56//16 
f 57//17 58//18 76//18 
f 76//18 75//17 57//17 
f 58//18 59//19 77//19 
f 77//19 76//18 58//18 
f 59//19 60//20 78//20 
f 78//20 77//19 59//19 
f 60//20 61//21 79//21 
f 79//21 78//20 60//20 
f 61//21 62//22 80//22 
f 80//22 79//21 61//21 
f 62//22 63//23 81//23 
f 81//23 80//22 62//22 
f 63//23 64//24 82//24 
f 82//24 81//23 63//23 
f 64//24 65//25 83//25 
f 83//25 82//24 64//24 
f 65//25 66//26 84//26 
f 84//26 83//25 65//25 
f 66//26 67//27 85//27 
f 85//27 84//26 66//26 
f 67//27 68//28 86//28 
f 86//28 85//27 67//27 
f 68//28 69//29 87//29 
f 87//29 86//28 68//28 
f 69//29 70//30 88//30 
f 88//30 87//29 69//29 
f 70//30 54//13 72//13 
f 72//13 88//30 70//30 
f 72//13 71//14 89//14 
f 89//14 90//13 72//13 
f 71//14 73//15 91//15 
f 91//15 89//14 71//14 
f 73//15 74//16 92//16 
f 92//16 91//15 73//15 
f 74//16 75//17 93//17 
f 93//17 92//16 74//16 
f 75//17 76//18 94//18 
f 94//18 93//17 75//17 
f 76//18 77//19 95//19 
f 95//19 94//18 76//18 
f 77//19 78//20 96//20 
f 96//20 95//19 77//19 
f 78//20 79//21 97//21 
f 97//21 96//20 78//20 
f 79//21 80//22 98//22 
f 98//22 97//21 79//21 
f 80//22 81//23 99//23 
f 99//23 98//22 80//22 
f 81//23 82//24 100//24 
f 100//24 99//23 81//23 
f 82//24 83//25 101//25 
f 101//25 100//24 82//24 
f 83//25 84//26 102//26 
f 102//26 101//25 83//25 
f 84//26 85//27 103//27 
f 103//27 102//26 84//26 
f 85//27 86//28 104//28 
f 104//28 103//27 85//27 
f 86//28 87//29 105//29 
f 105//29 104//28 86//28 
f 87//29 88//30 106//30 
f 106//30 105//29 87//29 
f 88//30 72//13 90//13 
f 90//13 106//30 88//30 
f 90//13 89//14 107//14 
f 107//14 108//13 90//13 
f 89//14 91//15 109//15 
f 109//15 107//14 89//14 
f 91//15 92//16 110//16 
f 110//16 109//15 91//15 
f 92//16 93//17 111//17 
f 111//17 110//16 92//16 
f 93//17 94//18 112//18 
f 112//18 111//17 93//17 
f 94//18 95//19 113//19 
f 113//19 112//18 94//18 
f 95//19 96//20 114//20 
f 114//20 113//19 95//19 
f 96//20 97//21 115//21 
f 115//21 114//20 96//20 
f 97//21 98//22 116//22 
f 116//22 115//21 97//21 
f 98//22 99//23 117//23 
f 117//23 116//22 98//22 
f 99//23 100//24 118//24 
f 118//24 117//23 99//23 
f 100//24 101//25 119//25 
f 119//25 118//24 100//24 
f 101//25 102//26 120//26 
f 120//26 119//25 101//25 
f 102//26 103//27 121//27 
f 121//27 120//26 102//26 
f 103//27 104//28 122//28 
f 122//28 121//27 103//27 
f 104//28 105//29 123//29 
f 123//29 122//28 104//28 
f 105//29 106//30 124//30 
f 124//30 123//29 105//29 
f 106//30 90//13 108//13 
f 108//13 124//30 106//30 
f 49//31 47//31 45//31 
f 45//31 43//31 41//31 
f 41//31 39//31 37//31 
f 45//31 41//31 37//31 
f 37//31 35//31 33//31 
f 33//31 31//31 29//31 
f 37//31 33//31 29//31 
f 29//31 27//31 25//31 
f 25//31 23//31 21//31 
f 29//31 25//31 21//31 
f 37//31 29//31 21//31 
f 45//31 37//31 21//31 
f 21//31 18//31 17//31 
f 45//31 21//31 17//31 
f 49//31 45//31 17//31 
f 51//31 49//31 17//31 
f 107//32 109//32 110//32 
f 110//32 111//32 112//32 
f 112//32 113//32 114//32 
f 110//32 112//32 114//32 
f 114//32 115//32 116//32 
f 116//32 117//32 118//32 
f 114//32 116//32 118//32 
f 118//32 119//32 120//32 
f 120//32 121//32 122//32 
f 118//32 120//32 122//32 
f 114//32 118//32 122//32 
f 110//32 114//32 122//32 
f 122//32 123//32 124//32 
f 110//32 122//32 124//32 
f 107//32 110//32 124//32 
f 108//32 107//32 124//32 
# 212 faces

#
# object Box003
#

v  -19.7983 -21.7181 4.5795
v  -14.0838 -8.8067 4.5795
v  -12.7062 -9.4164 4.5795
v  -18.4208 -22.3278 4.5795
v  -19.7983 -21.7181 6.3013
v  -18.4208 -22.3278 6.3013
v  -12.7062 -9.4164 6.3013
v  -14.0838 -8.8067 6.3013
# 8 vertices

vn 0.0000 0.0000 -1.0000
vn 0.0000 0.0000 1.0000
vn -0.4047 -0.9144 0.0000
vn 0.9144 -0.4047 0.0000
vn 0.4047 0.9144 0.0000
vn -0.9144 0.4047 0.0000
# 6 vertex normals

g Box003
s 2
f 125//33 126//33 127//33 
f 127//33 128//33 125//33 
s 4
f 129//34 130//34 131//34 
f 131//34 132//34 129//34 
s 8
f 125//35 128//35 130//35 
f 130//35 129//35 125//35 
s 16
f 128//36 127//36 131//36 
f 131//36 130//36 128//36 
s 32
f 127//37 126//37 132//37 
f 132//37 131//37 127//37 
s 64
f 126//38 125//38 129//38 
f 129//38 132//38 126//38 
s 32
f 126//36 126//36 132//36 
f 132//36 132//36 126//36 
f 127//36 127//36 131//36 
f 131//36 131//36 127//36 
f 126//36 126//36 132//36 
f 132//36 132//36 126//36 
# 18 faces

